<svg width="32" height="32" viewBox="0 0 32 32" fill="none" xmlns="http://www.w3.org/2000/svg">
<path d="M3.18544 28.7208C3.33197 28.8419 3.48849 28.9712 3.63364 29.0912C4.38281 29.6202 5.01993 29.9484 5.93563 30.2658C6.85132 30.5832 7.8732 30.786 8.90094 30.8923C9.92834 30.9986 11.3588 31.0484 12.3882 30.9125C13.4173 30.7764 14.4151 30.5909 15.3318 30.2681C16.2482 29.945 16.8743 29.6248 17.6052 29.0698C18.3364 28.5151 18.7398 28.0373 19.1504 27.2698C19.5614 26.5026 19.6741 25.5251 19.6652 24.6182C19.6562 23.7114 19.641 22.4433 19.6652 21.5413C19.6893 20.6393 19.6696 19.6749 19.0015 19.0128C18.3337 18.3507 17.6093 17.9399 16.5968 17.9231C16.3916 17.9197 16.181 17.914 15.9762 17.9231C15.2953 17.9536 14.6788 18.204 14.1489 18.5499C14.0283 18.6422 13.8759 18.7627 13.7697 18.8632C13.0526 19.6601 12.8923 20.4954 12.9767 21.5128C13.0612 22.5302 12.9085 23.8279 12.9767 24.8177C13.045 25.8074 11.9511 26.3846 10.9082 26.3846C10.7454 26.3977 10.5513 26.3974 10.391 26.3846C9.37775 26.3846 8.32243 25.8376 8.32243 24.9316C8.15073 23.4652 8.34208 21.9541 8.28795 20.4587C8.23382 18.9632 8.31174 17.4296 8.28795 15.9288C8.26416 14.4279 8.29691 12.9311 8.28795 11.4274C8.27899 9.92365 8.28795 8.40256 8.28795 6.89744C8.28795 6.55556 8.28795 6.21368 8.28795 5.8718C8.28795 5.76496 8.31243 5.64416 8.32243 5.5584C8.41069 3.94701 8.5548 2.22137 9.94282 1C8.94059 1.04359 7.75598 1.20798 6.84063 1.45641C5.92563 1.70513 5.14577 1.95356 4.3835 2.41738C3.62088 2.88091 3.09891 3.24131 2.59142 3.92792C2.08392 4.61453 1.75261 5.2604 1.63401 6.12821C1.51541 6.99573 1.57471 8.14501 1.56505 9.09117C1.5554 10.0373 1.56988 11.11 1.56505 12.0826C1.56023 13.0553 1.5685 14.0915 1.56505 15.0741C1.56161 16.0567 1.56954 17.0823 1.56505 18.0655C1.56057 19.0487 1.57367 20.114 1.56505 21.0855C1.55644 22.057 1.58333 23.1382 1.56505 24.0769C1.54678 25.0157 1.55299 26.0003 1.87776 26.81C2.20287 27.6194 2.53074 28.0878 3.18544 28.7208Z" fill="#D73D3D"/>
<path d="M20.5057 1.02849C19.4287 1.02849 18.1996 1.29259 17.2194 1.56068C16.2393 1.82877 15.5094 2.17094 14.7051 2.70228C13.9011 3.23362 13.4343 3.73276 12.9661 4.51311C12.4976 5.29316 12.3276 6.26524 12.3348 7.21083C12.3421 8.15641 12.3693 9.48063 12.3348 10.4302C12.3004 11.3798 12.3362 12.3798 13.0675 13.0726C13.7984 13.7658 14.6368 14.1177 15.7135 14.1054C16.7902 14.0932 17.6008 13.7433 18.3234 13.0427C19.0457 12.3422 19.0712 11.3199 19.0233 10.3732C18.9753 9.4265 19.0722 8.09715 19.0233 7.15385C18.9743 6.21054 20.0348 5.61538 21.0574 5.61538C21.2311 5.60142 21.4376 5.60171 21.609 5.61538C22.6398 5.61538 23.6776 6.18547 23.6776 7.09687C23.8493 8.56325 23.6579 10.0744 23.712 11.5698C23.7662 13.0652 23.6883 14.5989 23.712 16.0997C23.7358 17.6006 23.7031 19.0974 23.712 20.6011C23.721 22.1048 23.712 23.6256 23.712 25.1311C23.6434 27.1778 23.7672 29.4182 22.0572 31C23.1028 30.9481 24.3457 30.7929 25.2973 30.5151C26.2488 30.237 27.0314 29.9712 27.8233 29.4687C28.6149 28.9661 29.111 28.5433 29.5972 27.8006C30.0829 27.0576 30.3884 26.2815 30.4236 25.3496C30.4587 24.4177 30.4263 23.2182 30.4349 22.2251C30.4436 21.2319 30.4308 20.1091 30.4349 19.0912C30.4391 18.0732 30.4325 16.9821 30.4349 15.9573C30.4373 14.9325 30.4322 13.8416 30.4349 12.8234C30.4377 11.8051 30.4305 10.6835 30.4349 9.68946C30.4394 8.69544 30.4411 7.51197 30.4005 6.58405C30.3598 5.65613 30.065 4.87322 29.5651 4.14046C29.0652 3.40769 28.5405 3.00228 27.7537 2.50342C26.967 2.00456 26.1554 1.73476 25.2021 1.47806C24.2492 1.22108 23.0084 1.02849 21.9537 1.02849C21.8245 1.02849 21.6783 1.00826 21.5745 1C21.4135 1 21.2528 1 21.0918 1C20.9205 1.01368 20.7029 1.02849 20.5057 1.02849Z" fill="#D73D3D"/>
</svg>
