<svg width="32" height="32" viewBox="0 0 32 32" fill="none" xmlns="http://www.w3.org/2000/svg">
<g clip-path="url(#clip0_6_68344)">
<path d="M0 32H32V0H0V32ZM7.85039 5.35273C7.85039 5.46182 7.82539 5.58516 7.81518 5.67273C7.81518 6.02182 7.81518 6.37091 7.81518 6.72C7.9905 8.21731 7.79512 9.76029 7.85039 11.2873C7.90565 12.8143 7.82609 14.3802 7.85039 15.9127C7.87468 17.4452 7.84123 18.9737 7.85039 20.5091C7.85954 22.0445 7.85039 23.5974 7.85039 25.1345C7.85039 26.0596 8.92796 26.6182 9.9626 26.6182C10.1386 26.6182 10.3146 26.6182 10.4906 26.6182C11.5556 26.6182 12.6726 26.0288 12.6029 25.0182C12.5332 24.0076 12.6891 22.6825 12.6029 21.6436C12.5166 20.6048 12.6803 19.7519 13.4125 18.9382C13.5185 18.8204 13.6625 18.7078 13.7998 18.6182C14.3409 18.265 14.9703 18.0093 15.6656 17.9782C15.8683 17.9508 16.1 17.9584 16.2992 17.9782C17.3332 17.9953 18.0728 18.4148 18.7547 19.0909C19.4369 19.767 19.457 20.7517 19.4323 21.6727C19.4077 22.5937 19.4232 23.8886 19.4323 24.8145C19.4415 25.7405 19.3264 26.7386 18.9068 27.522C18.4875 28.3057 18.0756 28.7936 17.3289 29.36C16.5826 29.9267 15.9433 30.2537 15.0076 30.5836C14.0716 30.9132 13.0528 31.1025 12.0019 31.2416C10.9508 31.3804 9.49016 31.3295 8.4411 31.2209C7.39168 31.1124 6.34825 30.9053 5.41325 30.5812C4.47824 30.2572 3.82768 29.922 3.06271 29.3818C2.89971 29.2666 2.74306 29.1369 2.60506 29.0036C1.93655 28.3572 1.60176 27.879 1.26979 27.0525C0.938174 26.2257 0.931837 25.2204 0.950495 24.2618C0.969153 23.3033 0.941694 22.1993 0.950495 21.2073C0.959296 20.2153 0.945919 19.1276 0.950495 18.1236C0.955072 17.1197 0.946975 16.0724 0.950495 15.0691C0.954015 14.0657 0.945567 13.0077 0.950495 12.0145C0.955424 11.0214 0.940638 9.92611 0.950495 8.96C0.960352 7.99389 0.899802 6.82036 1.0209 5.93455C1.142 5.04844 1.48031 4.38895 1.9985 3.68785C2.5167 2.98676 3.04968 2.61876 3.82838 2.14545C4.60673 1.67185 5.40304 1.41818 6.33734 1.16422C7.27199 0.910545 8.48158 0.742691 9.50495 0.698182C8.08766 1.94531 7.94051 3.70735 7.85039 5.35273ZM22.4246 0.727273C23.5015 0.727273 24.7685 0.923927 25.7415 1.18633C26.7149 1.44844 27.5436 1.72393 28.3469 2.23331C29.1503 2.74269 29.6861 3.15665 30.1965 3.90487C30.707 4.65309 31.008 5.45251 31.0495 6.4C31.091 7.34749 31.0893 8.55593 31.0847 9.57091C31.0801 10.5859 31.0875 11.7312 31.0847 12.7709C31.0819 13.8106 31.0872 14.9245 31.0847 15.9709C31.0822 17.0173 31.0889 18.1315 31.0847 19.1709C31.0805 20.2103 31.0935 21.3568 31.0847 22.3709C31.0759 23.385 31.109 24.6097 31.0731 25.5613C31.0372 26.5129 30.7253 27.3053 30.2293 28.064C29.7329 28.8224 29.2263 29.2541 28.418 29.7673C27.6094 30.2804 26.8103 30.5519 25.8387 30.8358C24.8671 31.1194 23.598 31.278 22.5303 31.3309C24.2763 29.7158 24.15 27.4281 24.22 25.3382C24.0447 23.8409 24.2401 22.2979 24.1848 20.7709C24.1295 19.2439 24.2091 17.678 24.1848 16.1455C24.1605 14.6129 24.194 13.0845 24.1848 11.5491C24.1757 10.0137 24.1848 8.46051 24.1848 6.92364C24.1848 5.99302 23.1252 5.41091 22.0726 5.41091C21.885 5.41091 21.697 5.41091 21.5094 5.41091C20.4652 5.41091 19.3824 6.01862 19.4323 6.98182C19.4823 7.94502 19.3834 9.3024 19.4323 10.2691C19.4813 11.2358 19.4552 12.2796 18.7177 12.9949C17.9798 13.7103 17.1522 14.0675 16.0528 14.08C14.9534 14.0925 14.0972 13.7332 13.3509 13.0255C12.6043 12.318 12.5677 11.2969 12.6029 10.3273C12.6381 9.35767 12.6103 8.00553 12.6029 7.04C12.5955 6.07447 12.769 5.08189 13.2474 4.28538C13.7255 3.48858 14.2022 2.97891 15.0231 2.43636C15.8444 1.89382 16.5897 1.54444 17.5905 1.27069C18.5913 0.996945 19.8463 0.727273 20.9461 0.727273C21.1235 0.713018 21.3428 0.698182 21.5446 0.698182C21.709 0.698182 21.873 0.698182 22.0374 0.698182C22.1694 0.698182 22.3187 0.718836 22.4246 0.727273Z" stroke="#FEFEFE" stroke-width="0.3"/>
<path d="M2.60452 29.0027C2.75414 29.1264 2.91396 29.2584 3.06217 29.3809C3.82714 29.9211 4.4777 30.2562 5.41271 30.5803C6.34771 30.9044 7.39114 31.1115 8.44056 31.22C9.48963 31.3285 10.9502 31.3794 12.0014 31.2407C13.0522 31.1016 14.071 30.9122 15.0071 30.5826C15.9428 30.2528 16.5821 29.9258 17.3284 29.3591C18.0751 28.7927 18.4869 28.3048 18.9062 27.5211C19.3258 26.7377 19.441 25.7396 19.4318 24.8136C19.4227 23.8877 19.4072 22.5928 19.4318 21.6718C19.4564 20.7508 19.4364 19.7661 18.7541 19.09C18.0722 18.4139 17.3326 17.9944 16.2987 17.9773C16.0892 17.9738 15.8741 17.968 15.665 17.9773C14.9698 18.0084 14.3403 18.2641 13.7992 18.6173C13.676 18.7115 13.5204 18.8346 13.412 18.9373C12.6798 19.7509 12.5161 20.6039 12.6023 21.6427C12.6886 22.6816 12.5326 24.0066 12.6023 25.0173C12.672 26.0279 11.555 26.6173 10.4901 26.6173C10.324 26.6306 10.1258 26.6304 9.96206 26.6173C8.92743 26.6173 7.84985 26.0587 7.84985 25.1336C7.67453 23.6363 7.86991 22.0933 7.81464 20.5664C7.75937 19.0394 7.83893 17.4734 7.81464 15.9409C7.79035 14.4084 7.8238 12.88 7.81464 11.3445C7.80549 9.80912 7.81464 8.25596 7.81464 6.71908C7.81464 6.36999 7.81464 6.0209 7.81464 5.67181C7.81464 5.56272 7.83964 5.43937 7.84985 5.35181C7.93997 3.70643 8.08712 1.94439 9.50441 0.697266C8.48105 0.741775 7.27145 0.909629 6.3368 1.1633C5.4025 1.41727 4.60619 1.67094 3.82784 2.14454C3.04914 2.61785 2.51616 2.98585 1.99797 3.68694C1.47977 4.38803 1.14146 5.04752 1.02036 5.93363C0.899264 6.81945 0.959814 7.99297 0.949957 8.95908C0.9401 9.92519 0.954885 11.0205 0.949957 12.0136C0.945028 13.0068 0.953477 14.0648 0.949957 15.0682C0.946437 16.0715 0.954533 17.1188 0.949957 18.1227C0.94538 19.1266 0.958758 20.2144 0.949957 21.2064C0.941156 22.1984 0.968615 23.3024 0.949957 24.2609C0.931299 25.2194 0.937636 26.2248 1.26925 27.0516C1.60122 27.8781 1.93601 28.3563 2.60452 29.0027Z" stroke="#001D7B" stroke-width="0.3"/>
<path d="M20.9453 0.726357C21.1467 0.726357 21.3688 0.711229 21.5438 0.697266C21.3421 0.697266 21.1227 0.712102 20.9453 0.726357Z" stroke="#7787B9" stroke-width="0.3"/>
<path d="M20.9458 0.726357C19.8461 0.726357 18.5911 0.996029 17.5902 1.26977C16.5894 1.54352 15.8441 1.8929 15.0228 2.43545C14.2019 2.97799 13.7252 3.48767 13.2472 4.28447C12.7688 5.08097 12.5952 6.07356 12.6026 7.03908C12.61 8.00461 12.6378 9.35676 12.6026 10.3264C12.5674 11.296 12.604 12.317 13.3507 13.0245C14.097 13.7323 14.9531 14.0916 16.0525 14.0791C17.1519 14.0666 17.9796 13.7093 18.7174 12.994C19.455 12.2786 19.481 11.2349 19.4321 10.2682C19.3831 9.30148 19.4821 7.9441 19.4321 6.9809C19.3821 6.0177 20.4649 5.40999 21.5091 5.40999C21.6865 5.39574 21.8974 5.39603 22.0723 5.40999C23.1249 5.40999 24.1845 5.9921 24.1845 6.92272C24.3599 8.42003 24.1645 9.96301 24.2198 11.49C24.275 13.017 24.1955 14.5829 24.2198 16.1154C24.244 17.648 24.2106 19.1764 24.2198 20.7118C24.2289 22.2472 24.2198 23.8001 24.2198 25.3373C24.1497 27.4272 24.2761 29.7149 22.53 31.33C23.5977 31.277 24.8668 31.1185 25.8384 30.8349C26.81 30.5509 27.6091 30.2795 28.4178 29.7664C29.226 29.2532 29.7326 28.8215 30.229 28.0631C30.725 27.3044 31.0369 26.512 31.0728 25.5604C31.1087 24.6088 31.0756 23.3841 31.0844 22.37C31.0932 21.3559 31.0802 20.2094 31.0844 19.17C31.0887 18.1306 31.082 17.0164 31.0844 15.97C31.0869 14.9236 31.0816 13.8097 31.0844 12.77C31.0873 11.7303 31.0799 10.585 31.0844 9.56999C31.089 8.55501 31.0908 7.34657 31.0492 6.39908C31.0077 5.45159 30.7067 4.65217 30.1963 3.90396C29.6858 3.15574 29.15 2.74177 28.3467 2.23239C27.5433 1.72301 26.7146 1.44752 25.7412 1.18541C24.7682 0.923011 23.5012 0.726357 22.4244 0.726357C22.2924 0.726357 22.1431 0.705702 22.0371 0.697266C21.8727 0.697266 21.7087 0.697266 21.5443 0.697266C21.3693 0.711229 21.1472 0.726357 20.9458 0.726357Z" stroke="#001D7B" stroke-width="0.3"/>
<path d="M22.4243 0.726357C22.3184 0.71792 22.1691 0.697266 22.0371 0.697266C22.1431 0.705702 22.2923 0.726357 22.4243 0.726357Z" stroke="#5B6EAA" stroke-width="0.3"/>
<path d="M7.81445 5.67352C7.82466 5.58595 7.84966 5.46261 7.84966 5.35352C7.83945 5.44108 7.81445 5.56442 7.81445 5.67352Z" stroke="#9AA6CB" stroke-width="0.3"/>
<path d="M21.5098 5.41097C21.6974 5.41097 21.8854 5.41097 22.073 5.41097C21.8981 5.39701 21.6872 5.39672 21.5098 5.41097Z" stroke="#9EA9CE" stroke-width="0.3"/>
<path d="M7.85019 25.1352C7.85019 23.5981 7.85934 22.0452 7.85019 20.5098C7.84103 18.9744 7.87448 17.4459 7.85019 15.9134C7.8259 14.3809 7.90546 12.815 7.85019 11.288C7.79492 9.76099 7.9903 8.21801 7.81498 6.7207C7.81498 8.25758 7.80583 9.81074 7.81498 11.3462C7.82414 12.8816 7.79069 14.41 7.81498 15.9425C7.83927 17.475 7.75971 19.041 7.81498 20.568C7.87025 22.095 7.67487 23.6379 7.85019 25.1352Z" stroke="#8291BF" stroke-width="0.3"/>
<path d="M24.2193 25.3384C24.2193 23.8012 24.2285 22.2483 24.2193 20.7129C24.2102 19.1775 24.2436 17.6491 24.2193 16.1166C24.195 14.584 24.2746 13.0181 24.2193 11.4911C24.1641 9.96412 24.3594 8.42114 24.1841 6.92383C24.1841 8.4607 24.175 10.0139 24.1841 11.5493C24.1933 13.0847 24.1598 14.6131 24.1841 16.1456C24.2084 17.6782 24.1289 19.2441 24.1841 20.7711C24.2394 22.2981 24.044 23.8411 24.2193 25.3384Z" stroke="#6C7DB3" stroke-width="0.3"/>
<path d="M15.666 17.9787C15.8751 17.9694 16.0902 17.9752 16.2997 17.9787C16.1004 17.9589 15.8688 17.9514 15.666 17.9787Z" stroke="#485DA1" stroke-width="0.3"/>
<path d="M13.4121 18.9391C13.5205 18.8364 13.6761 18.7134 13.7993 18.6191C13.6621 18.7087 13.5181 18.8213 13.4121 18.9391Z" stroke="#8491BF" stroke-width="0.3"/>
<path d="M10.4909 26.6191C10.3149 26.6191 10.1389 26.6191 9.96289 26.6191C10.1266 26.6322 10.3248 26.6325 10.4909 26.6191Z" stroke="#A6B1D1" stroke-width="0.3"/>
<path d="M3.06311 29.3821C2.91491 29.2596 2.75508 29.1275 2.60547 29.0039C2.74347 29.1371 2.90012 29.2669 3.06311 29.3821Z" stroke="#6779B1" stroke-width="0.3"/>
<path d="M0 32H32V0H0V32ZM7.85039 5.35273C7.85039 5.46182 7.82539 5.58516 7.81518 5.67273C7.81518 6.02182 7.81518 6.37091 7.81518 6.72C7.9905 8.21731 7.79512 9.76029 7.85039 11.2873C7.90565 12.8143 7.82609 14.3802 7.85039 15.9127C7.87468 17.4452 7.84123 18.9737 7.85039 20.5091C7.85954 22.0445 7.85039 23.5974 7.85039 25.1345C7.85039 26.0596 8.92796 26.6182 9.9626 26.6182C10.1386 26.6182 10.3146 26.6182 10.4906 26.6182C11.5556 26.6182 12.6726 26.0288 12.6029 25.0182C12.5332 24.0076 12.6891 22.6825 12.6029 21.6436C12.5166 20.6048 12.6803 19.7519 13.4125 18.9382C13.5185 18.8204 13.6625 18.7078 13.7998 18.6182C14.3409 18.265 14.9703 18.0093 15.6656 17.9782C15.8683 17.9508 16.1 17.9584 16.2992 17.9782C17.3332 17.9953 18.0728 18.4148 18.7547 19.0909C19.4369 19.767 19.457 20.7517 19.4323 21.6727C19.4077 22.5937 19.4232 23.8886 19.4323 24.8145C19.4415 25.7405 19.3264 26.7386 18.9068 27.522C18.4875 28.3057 18.0756 28.7936 17.3289 29.36C16.5826 29.9267 15.9433 30.2537 15.0076 30.5836C14.0716 30.9132 13.0528 31.1025 12.0019 31.2416C10.9508 31.3804 9.49016 31.3295 8.4411 31.2209C7.39168 31.1124 6.34825 30.9053 5.41325 30.5812C4.47824 30.2572 3.82768 29.922 3.06271 29.3818C2.89971 29.2666 2.74306 29.1369 2.60506 29.0036C1.93655 28.3572 1.60176 27.879 1.26979 27.0525C0.938174 26.2257 0.931837 25.2204 0.950495 24.2618C0.969153 23.3033 0.941694 22.1993 0.950495 21.2073C0.959296 20.2153 0.945919 19.1276 0.950495 18.1236C0.955072 17.1197 0.946975 16.0724 0.950495 15.0691C0.954015 14.0657 0.945567 13.0077 0.950495 12.0145C0.955424 11.0214 0.940638 9.92611 0.950495 8.96C0.960352 7.99389 0.899802 6.82036 1.0209 5.93455C1.142 5.04844 1.48031 4.38895 1.9985 3.68785C2.5167 2.98676 3.04968 2.61876 3.82838 2.14545C4.60673 1.67185 5.40304 1.41818 6.33734 1.16422C7.27199 0.910545 8.48158 0.742691 9.50495 0.698182C8.08766 1.94531 7.94051 3.70735 7.85039 5.35273ZM22.4246 0.727273C23.5015 0.727273 24.7685 0.923927 25.7415 1.18633C26.7149 1.44844 27.5436 1.72393 28.3469 2.23331C29.1503 2.74269 29.6861 3.15665 30.1965 3.90487C30.707 4.65309 31.008 5.45251 31.0495 6.4C31.091 7.34749 31.0893 8.55593 31.0847 9.57091C31.0801 10.5859 31.0875 11.7312 31.0847 12.7709C31.0819 13.8106 31.0872 14.9245 31.0847 15.9709C31.0822 17.0173 31.0889 18.1315 31.0847 19.1709C31.0805 20.2103 31.0935 21.3568 31.0847 22.3709C31.0759 23.385 31.109 24.6097 31.0731 25.5613C31.0372 26.5129 30.7253 27.3053 30.2293 28.064C29.7329 28.8224 29.2263 29.2541 28.418 29.7673C27.6094 30.2804 26.8103 30.5519 25.8387 30.8358C24.8671 31.1194 23.598 31.278 22.5303 31.3309C24.2763 29.7158 24.15 27.4281 24.22 25.3382C24.0447 23.8409 24.2401 22.2979 24.1848 20.7709C24.1295 19.2439 24.2091 17.678 24.1848 16.1455C24.1605 14.6129 24.194 13.0845 24.1848 11.5491C24.1757 10.0137 24.1848 8.46051 24.1848 6.92364C24.1848 5.99302 23.1252 5.41091 22.0726 5.41091C21.885 5.41091 21.697 5.41091 21.5094 5.41091C20.4652 5.41091 19.3824 6.01862 19.4323 6.98182C19.4823 7.94502 19.3834 9.3024 19.4323 10.2691C19.4813 11.2358 19.4552 12.2796 18.7177 12.9949C17.9798 13.7103 17.1522 14.0675 16.0528 14.08C14.9534 14.0925 14.0972 13.7332 13.3509 13.0255C12.6043 12.318 12.5677 11.2969 12.6029 10.3273C12.6381 9.35767 12.6103 8.00553 12.6029 7.04C12.5955 6.07447 12.769 5.08189 13.2474 4.28538C13.7255 3.48858 14.2022 2.97891 15.0231 2.43636C15.8444 1.89382 16.5897 1.54444 17.5905 1.27069C18.5913 0.996945 19.8463 0.727273 20.9461 0.727273C21.1235 0.713018 21.3428 0.698182 21.5446 0.698182C21.709 0.698182 21.873 0.698182 22.0374 0.698182C22.1694 0.698182 22.3187 0.718836 22.4246 0.727273Z" fill="#FEFEFE"/>
<path d="M2.60452 29.0027C2.75414 29.1264 2.91396 29.2584 3.06217 29.3809C3.82714 29.9211 4.4777 30.2562 5.41271 30.5803C6.34771 30.9044 7.39114 31.1115 8.44056 31.22C9.48963 31.3285 10.9502 31.3794 12.0014 31.2407C13.0522 31.1016 14.071 30.9122 15.0071 30.5826C15.9428 30.2528 16.5821 29.9258 17.3284 29.3591C18.0751 28.7927 18.4869 28.3048 18.9062 27.5211C19.3258 26.7377 19.441 25.7396 19.4318 24.8136C19.4227 23.8877 19.4072 22.5928 19.4318 21.6718C19.4564 20.7508 19.4364 19.7661 18.7541 19.09C18.0722 18.4139 17.3326 17.9944 16.2987 17.9773C16.0892 17.9738 15.8741 17.968 15.665 17.9773C14.9698 18.0084 14.3403 18.2641 13.7992 18.6173C13.676 18.7115 13.5204 18.8346 13.412 18.9373C12.6798 19.7509 12.5161 20.6039 12.6023 21.6427C12.6886 22.6816 12.5326 24.0066 12.6023 25.0173C12.672 26.0279 11.555 26.6173 10.4901 26.6173C10.324 26.6306 10.1258 26.6304 9.96206 26.6173C8.92743 26.6173 7.84985 26.0587 7.84985 25.1336C7.67453 23.6363 7.86991 22.0933 7.81464 20.5664C7.75937 19.0394 7.83893 17.4734 7.81464 15.9409C7.79035 14.4084 7.8238 12.88 7.81464 11.3445C7.80549 9.80912 7.81464 8.25596 7.81464 6.71908C7.81464 6.36999 7.81464 6.0209 7.81464 5.67181C7.81464 5.56272 7.83964 5.43937 7.84985 5.35181C7.93997 3.70643 8.08712 1.94439 9.50441 0.697266C8.48105 0.741775 7.27145 0.909629 6.3368 1.1633C5.4025 1.41727 4.60619 1.67094 3.82784 2.14454C3.04914 2.61785 2.51616 2.98585 1.99797 3.68694C1.47977 4.38803 1.14146 5.04752 1.02036 5.93363C0.899264 6.81945 0.959814 7.99297 0.949957 8.95908C0.9401 9.92519 0.954885 11.0205 0.949957 12.0136C0.945028 13.0068 0.953477 14.0648 0.949957 15.0682C0.946437 16.0715 0.954533 17.1188 0.949957 18.1227C0.94538 19.1266 0.958758 20.2144 0.949957 21.2064C0.941156 22.1984 0.968615 23.3024 0.949957 24.2609C0.931299 25.2194 0.937636 26.2248 1.26925 27.0516C1.60122 27.8781 1.93601 28.3563 2.60452 29.0027Z" fill="#001D7B"/>
<path d="M20.9453 0.726357C21.1467 0.726357 21.3688 0.711229 21.5438 0.697266C21.3421 0.697266 21.1227 0.712102 20.9453 0.726357Z" fill="#7787B9"/>
<path d="M20.9458 0.726357C19.8461 0.726357 18.5911 0.996029 17.5902 1.26977C16.5894 1.54352 15.8441 1.8929 15.0228 2.43545C14.2019 2.97799 13.7252 3.48767 13.2472 4.28447C12.7688 5.08097 12.5952 6.07356 12.6026 7.03908C12.61 8.00461 12.6378 9.35676 12.6026 10.3264C12.5674 11.296 12.604 12.317 13.3507 13.0245C14.097 13.7323 14.9531 14.0916 16.0525 14.0791C17.1519 14.0666 17.9796 13.7093 18.7174 12.994C19.455 12.2786 19.481 11.2349 19.4321 10.2682C19.3831 9.30148 19.4821 7.9441 19.4321 6.9809C19.3821 6.0177 20.4649 5.40999 21.5091 5.40999C21.6865 5.39574 21.8974 5.39603 22.0723 5.40999C23.1249 5.40999 24.1845 5.9921 24.1845 6.92272C24.3599 8.42003 24.1645 9.96301 24.2198 11.49C24.275 13.017 24.1955 14.5829 24.2198 16.1154C24.244 17.648 24.2106 19.1764 24.2198 20.7118C24.2289 22.2472 24.2198 23.8001 24.2198 25.3373C24.1497 27.4272 24.2761 29.7149 22.53 31.33C23.5977 31.277 24.8668 31.1185 25.8384 30.8349C26.81 30.5509 27.6091 30.2795 28.4178 29.7664C29.226 29.2532 29.7326 28.8215 30.229 28.0631C30.725 27.3044 31.0369 26.512 31.0728 25.5604C31.1087 24.6088 31.0756 23.3841 31.0844 22.37C31.0932 21.3559 31.0802 20.2094 31.0844 19.17C31.0887 18.1306 31.082 17.0164 31.0844 15.97C31.0869 14.9236 31.0816 13.8097 31.0844 12.77C31.0873 11.7303 31.0799 10.585 31.0844 9.56999C31.089 8.55501 31.0908 7.34657 31.0492 6.39908C31.0077 5.45159 30.7067 4.65217 30.1963 3.90396C29.6858 3.15574 29.15 2.74177 28.3467 2.23239C27.5433 1.72301 26.7146 1.44752 25.7412 1.18541C24.7682 0.923011 23.5012 0.726357 22.4244 0.726357C22.2924 0.726357 22.1431 0.705702 22.0371 0.697266C21.8727 0.697266 21.7087 0.697266 21.5443 0.697266C21.3693 0.711229 21.1472 0.726357 20.9458 0.726357Z" fill="#001D7B"/>
<path d="M22.4243 0.726357C22.3184 0.71792 22.1691 0.697266 22.0371 0.697266C22.1431 0.705702 22.2923 0.726357 22.4243 0.726357Z" fill="#5B6EAA"/>
<path d="M7.81445 5.67352C7.82466 5.58595 7.84966 5.46261 7.84966 5.35352C7.83945 5.44108 7.81445 5.56442 7.81445 5.67352Z" fill="#9AA6CB"/>
<path d="M21.5098 5.41097C21.6974 5.41097 21.8854 5.41097 22.073 5.41097C21.8981 5.39701 21.6872 5.39672 21.5098 5.41097Z" fill="#9EA9CE"/>
<path d="M7.85019 25.1352C7.85019 23.5981 7.85934 22.0452 7.85019 20.5098C7.84103 18.9744 7.87448 17.4459 7.85019 15.9134C7.8259 14.3809 7.90546 12.815 7.85019 11.288C7.79492 9.76099 7.9903 8.21801 7.81498 6.7207C7.81498 8.25758 7.80583 9.81074 7.81498 11.3462C7.82414 12.8816 7.79069 14.41 7.81498 15.9425C7.83927 17.475 7.75971 19.041 7.81498 20.568C7.87025 22.095 7.67487 23.6379 7.85019 25.1352Z" fill="#8291BF"/>
<path d="M24.2193 25.3384C24.2193 23.8012 24.2285 22.2483 24.2193 20.7129C24.2102 19.1775 24.2436 17.6491 24.2193 16.1166C24.195 14.584 24.2746 13.0181 24.2193 11.4911C24.1641 9.96412 24.3594 8.42114 24.1841 6.92383C24.1841 8.4607 24.175 10.0139 24.1841 11.5493C24.1933 13.0847 24.1598 14.6131 24.1841 16.1456C24.2084 17.6782 24.1289 19.2441 24.1841 20.7711C24.2394 22.2981 24.044 23.8411 24.2193 25.3384Z" fill="#6C7DB3"/>
<path d="M15.666 17.9787C15.8751 17.9694 16.0902 17.9752 16.2997 17.9787C16.1004 17.9589 15.8688 17.9514 15.666 17.9787Z" fill="#485DA1"/>
<path d="M13.4121 18.9391C13.5205 18.8364 13.6761 18.7134 13.7993 18.6191C13.6621 18.7087 13.5181 18.8213 13.4121 18.9391Z" fill="#8491BF"/>
<path d="M10.4909 26.6191C10.3149 26.6191 10.1389 26.6191 9.96289 26.6191C10.1266 26.6322 10.3248 26.6325 10.4909 26.6191Z" fill="#A6B1D1"/>
<path d="M3.06311 29.3821C2.91491 29.2596 2.75508 29.1275 2.60547 29.0039C2.74347 29.1371 2.90012 29.2669 3.06311 29.3821Z" fill="#6779B1"/>
</g>
<defs>
<clipPath id="clip0_6_68344">
<rect width="32" height="32" fill="white"/>
</clipPath>
</defs>
</svg>
