<svg width="32" height="32" viewBox="0 0 32 32" fill="none" xmlns="http://www.w3.org/2000/svg">
<path d="M3.1852 28.7208C3.33173 28.8419 3.48825 28.9712 3.63339 29.0912C4.38257 29.6202 5.01969 29.9484 5.93538 30.2658C6.85107 30.5832 7.87295 30.786 8.90069 30.8923C9.92809 30.9986 11.3585 31.0484 12.388 30.9125C13.4171 30.7764 14.4148 30.5909 15.3316 30.2681C16.248 29.945 16.874 29.6248 17.6049 29.0698C18.3362 28.5151 18.7396 28.0373 19.1502 27.2698C19.5611 26.5026 19.6739 25.5251 19.6649 24.6182C19.6559 23.7114 19.6408 22.4433 19.6649 21.5413C19.689 20.6393 19.6694 19.6749 19.0012 19.0128C18.3334 18.3507 17.6091 17.9399 16.5965 17.9231C16.3914 17.9197 16.1807 17.914 15.9759 17.9231C15.295 17.9536 14.6786 18.204 14.1487 18.5499C14.028 18.6422 13.8756 18.7627 13.7694 18.8632C13.0523 19.6601 12.892 20.4954 12.9765 21.5128C13.061 22.5302 12.9082 23.8279 12.9765 24.8177C13.0448 25.8074 11.9508 26.3846 10.9079 26.3846C10.7452 26.3977 10.5511 26.3974 10.3908 26.3846C9.3775 26.3846 8.32218 25.8376 8.32218 24.9316C8.15049 23.4652 8.34183 21.9541 8.2877 20.4587C8.23358 18.9632 8.31149 17.4296 8.2877 15.9288C8.26392 14.4279 8.29667 12.9311 8.2877 11.4274C8.27874 9.92365 8.2877 8.40256 8.2877 6.89744C8.2877 6.55556 8.2877 6.21368 8.2877 5.8718C8.2877 5.76496 8.31218 5.64416 8.32218 5.5584C8.41044 3.94701 8.55455 2.22137 9.94257 1C8.94034 1.04359 7.75573 1.20798 6.84039 1.45641C5.92538 1.70513 5.14553 1.95356 4.38326 2.41738C3.62064 2.88091 3.09866 3.24131 2.59117 3.92792C2.08368 4.61453 1.75236 5.2604 1.63376 6.12821C1.51516 6.99573 1.57446 8.14501 1.56481 9.09117C1.55516 10.0373 1.56964 11.11 1.56481 12.0826C1.55998 13.0553 1.56826 14.0915 1.56481 15.0741C1.56136 16.0567 1.56929 17.0823 1.56481 18.0655C1.56033 19.0487 1.57343 20.114 1.56481 21.0855C1.55619 22.057 1.58308 23.1382 1.56481 24.0769C1.54654 25.0157 1.55274 26.0003 1.87751 26.81C2.20262 27.6194 2.53049 28.0877 3.1852 28.7208Z" fill="#42A8C3"/>
<path d="M20.5063 1.02849C19.4293 1.02849 18.2002 1.29259 17.2201 1.56068C16.2399 1.82877 15.51 2.17094 14.7057 2.70228C13.9017 3.23362 13.4349 3.73276 12.9667 4.51311C12.4982 5.29316 12.3282 6.26524 12.3354 7.21083C12.3427 8.15641 12.3699 9.48063 12.3354 10.4302C12.301 11.3798 12.3368 12.3798 13.0681 13.0726C13.799 13.7658 14.6374 14.1177 15.7141 14.1054C16.7908 14.0932 17.6014 13.7433 18.324 13.0427C19.0463 12.3422 19.0718 11.3199 19.0239 10.3732C18.9759 9.4265 19.0728 8.09715 19.0239 7.15385C18.9749 6.21054 20.0354 5.61538 21.058 5.61538C21.2317 5.60142 21.4382 5.60171 21.6096 5.61538C22.6404 5.61538 23.6782 6.18547 23.6782 7.09687C23.8499 8.56325 23.6585 10.0744 23.7126 11.5698C23.7668 13.0652 23.6889 14.5989 23.7126 16.0997C23.7364 17.6006 23.7037 19.0974 23.7126 20.6011C23.7216 22.1048 23.7126 23.6256 23.7126 25.1311C23.644 27.1778 23.7678 29.4182 22.0578 31C23.1035 30.9481 24.3463 30.7929 25.2979 30.5151C26.2494 30.237 27.032 29.9712 27.824 29.4687C28.6155 28.9661 29.1117 28.5433 29.5978 27.8006C30.0835 27.0576 30.389 26.2815 30.4242 25.3496C30.4593 24.4177 30.4269 23.2182 30.4355 22.2251C30.4442 21.2319 30.4314 20.1091 30.4355 19.0912C30.4397 18.0732 30.4331 16.9821 30.4355 15.9573C30.438 14.9325 30.4328 13.8416 30.4355 12.8234C30.4383 11.8051 30.4311 10.6835 30.4355 9.68946C30.44 8.69544 30.4418 7.51197 30.4011 6.58405C30.3604 5.65613 30.0656 4.87322 29.5657 4.14046C29.0658 3.40769 28.5411 3.00228 27.7543 2.50342C26.9676 2.00456 26.156 1.73476 25.2027 1.47806C24.2498 1.22108 23.009 1.02849 21.9544 1.02849C21.8251 1.02849 21.6789 1.00826 21.5751 1C21.4141 1 21.2534 1 21.0924 1C20.9211 1.01368 20.7036 1.02849 20.5063 1.02849Z" fill="#42A8C3"/>
</svg>
